<svg xmlns="http://www.w3.org/2000/svg" viewBox="0 0 1200 600" role="img" aria-labelledby="title desc">
<title id="title">GER1E — Matrix signal node</title>
<desc id="desc">Large black and Matrix-green banner with extremely fast digital rain, synchronized horizontal signal tearing, and a threat-hunting identity mark.</desc>
<defs>
  <radialGradient id="vignette" cx="50%" cy="46%" r="72%"><stop offset="0" stop-color="#071107"/><stop offset=".55" stop-color="#020602"/><stop offset="1" stop-color="#000"/></radialGradient>
  <filter id="greenGlow" x="-40%" y="-60%" width="180%" height="220%"><feGaussianBlur stdDeviation="7" result="b"/><feMerge><feMergeNode in="b"/><feMergeNode in="SourceGraphic"/></feMerge></filter>
  <filter id="headGlow" x="-80%" y="-100%" width="260%" height="300%"><feGaussianBlur stdDeviation="2" result="b"/><feMerge><feMergeNode in="b"/><feMergeNode in="SourceGraphic"/></feMerge></filter>
  <pattern id="scan" width="5" height="5" patternUnits="userSpaceOnUse"><path d="M0 4.5H5" stroke="#00ff41" stroke-opacity=".038" stroke-width=".7"/></pattern>
  <clipPath id="frame"><rect x="10" y="10" width="1180" height="580" rx="3"/></clipPath>
  <clipPath id="g0"><rect x="50" y="150" width="865" height="20"/></clipPath>
<clipPath id="g1"><rect x="50" y="190" width="865" height="18"/></clipPath>
<clipPath id="g2"><rect x="50" y="232" width="865" height="24"/></clipPath>
<clipPath id="g3"><rect x="50" y="272" width="865" height="17"/></clipPath>
<clipPath id="g4"><rect x="50" y="310" width="865" height="25"/></clipPath>
<clipPath id="g5"><rect x="50" y="348" width="865" height="18"/></clipPath>
  <style>
    .rain{font-family:ui-monospace,SFMono-Regular,Menlo,Consolas,monospace;font-size:15px;font-weight:700;fill:#00ff41;fill-opacity:.52}
    .head{font-family:ui-monospace,SFMono-Regular,Menlo,Consolas,monospace;font-size:15px;font-weight:800;fill:#eaffea;filter:url(#headGlow)}
    .mark{font-family:'Arial Unicode MS','Noto Sans JP','Noto Sans',Impact,sans-serif;font-size:198px;font-weight:900;letter-spacing:-9px}
    .glitch{fill:#effff1;stroke:#00ff41;stroke-width:2.3}
  </style>
</defs>
<rect width="1200" height="600" fill="#000"/><rect width="1200" height="600" fill="url(#vignette)"/>
<g clip-path="url(#frame)" opacity=".88"><g>
      <text x="22" y="-624" class="rain">ｵ<tspan x="22" dy="17">C</tspan><tspan x="22" dy="17">U</tspan><tspan x="22" dy="17">Q</tspan><tspan x="22" dy="17">ﾆ</tspan><tspan x="22" dy="17">O</tspan><tspan x="22" dy="17">N</tspan><tspan x="22" dy="17">5</tspan><tspan x="22" dy="17">ｾ</tspan><tspan x="22" dy="17">C</tspan><tspan x="22" dy="17">A</tspan><tspan x="22" dy="17">4</tspan><tspan x="22" dy="17">Z</tspan><tspan x="22" dy="17">M</tspan><tspan x="22" dy="17">M</tspan><tspan x="22" dy="17">8</tspan><tspan x="22" dy="17">2</tspan><tspan x="22" dy="17">9</tspan><tspan x="22" dy="17">ﾅ</tspan><tspan x="22" dy="17">ﾁ</tspan><tspan x="22" dy="17">X</tspan></text>
      <text x="22" y="-624" class="head">ｵ</text>
      <animateTransform attributeName="transform" type="translate" values="0 0;0 1650" dur="0.077s" begin="-0.067s" repeatCount="indefinite"/>
    </g><g>
      <text x="60" y="-386" class="rain">E<tspan x="60" dy="17">X</tspan><tspan x="60" dy="17">Y</tspan><tspan x="60" dy="17">I</tspan><tspan x="60" dy="17">R</tspan><tspan x="60" dy="17">ｶ</tspan><tspan x="60" dy="17">ｻ</tspan><tspan x="60" dy="17">T</tspan><tspan x="60" dy="17">S</tspan><tspan x="60" dy="17">A</tspan><tspan x="60" dy="17">ﾅ</tspan><tspan x="60" dy="17">ｼ</tspan><tspan x="60" dy="17">Q</tspan><tspan x="60" dy="17">C</tspan><tspan x="60" dy="17">Z</tspan><tspan x="60" dy="17">I</tspan><tspan x="60" dy="17">ｹ</tspan><tspan x="60" dy="17">2</tspan><tspan x="60" dy="17">Y</tspan><tspan x="60" dy="17">C</tspan><tspan x="60" dy="17">H</tspan><tspan x="60" dy="17">Y</tspan><tspan x="60" dy="17">A</tspan></text>
      <text x="60" y="-386" class="head">E</text>
      <animateTransform attributeName="transform" type="translate" values="0 0;0 1650" dur="0.11s" begin="-0.1s" repeatCount="indefinite"/>
    </g><g>
      <text x="98" y="-731" class="rain">C<tspan x="98" dy="17">2</tspan><tspan x="98" dy="17">ｻ</tspan><tspan x="98" dy="17">ｼ</tspan><tspan x="98" dy="17">ｹ</tspan><tspan x="98" dy="17">S</tspan><tspan x="98" dy="17">8</tspan><tspan x="98" dy="17">P</tspan><tspan x="98" dy="17">C</tspan><tspan x="98" dy="17">I</tspan><tspan x="98" dy="17">ﾆ</tspan><tspan x="98" dy="17">9</tspan><tspan x="98" dy="17">ｽ</tspan><tspan x="98" dy="17">J</tspan><tspan x="98" dy="17">W</tspan><tspan x="98" dy="17">ﾄ</tspan><tspan x="98" dy="17">M</tspan><tspan x="98" dy="17">ｻ</tspan><tspan x="98" dy="17">V</tspan><tspan x="98" dy="17">G</tspan><tspan x="98" dy="17">ｼ</tspan><tspan x="98" dy="17">L</tspan><tspan x="98" dy="17">T</tspan><tspan x="98" dy="17">7</tspan></text>
      <text x="98" y="-731" class="head">C</text>
      <animateTransform attributeName="transform" type="translate" values="0 0;0 1650" dur="0.106s" begin="-0.012s" repeatCount="indefinite"/>
    </g><g>
      <text x="136" y="-621" class="rain">W<tspan x="136" dy="17">M</tspan><tspan x="136" dy="17">ﾂ</tspan><tspan x="136" dy="17">F</tspan><tspan x="136" dy="17">9</tspan><tspan x="136" dy="17">ｵ</tspan><tspan x="136" dy="17">C</tspan><tspan x="136" dy="17">ｴ</tspan><tspan x="136" dy="17">1</tspan><tspan x="136" dy="17">ｱ</tspan><tspan x="136" dy="17">9</tspan><tspan x="136" dy="17">ｾ</tspan><tspan x="136" dy="17">S</tspan><tspan x="136" dy="17">9</tspan><tspan x="136" dy="17">L</tspan><tspan x="136" dy="17">ｷ</tspan><tspan x="136" dy="17">ﾇ</tspan><tspan x="136" dy="17">ｿ</tspan><tspan x="136" dy="17">ﾅ</tspan><tspan x="136" dy="17">ｵ</tspan></text>
      <text x="136" y="-621" class="head">W</text>
      <animateTransform attributeName="transform" type="translate" values="0 0;0 1650" dur="0.065s" begin="-0.025s" repeatCount="indefinite"/>
    </g><g>
      <text x="174" y="-767" class="rain">X<tspan x="174" dy="17">ﾀ</tspan><tspan x="174" dy="17">1</tspan><tspan x="174" dy="17">3</tspan><tspan x="174" dy="17">W</tspan><tspan x="174" dy="17">T</tspan><tspan x="174" dy="17">ｿ</tspan><tspan x="174" dy="17">B</tspan><tspan x="174" dy="17">L</tspan><tspan x="174" dy="17">S</tspan><tspan x="174" dy="17">ｻ</tspan><tspan x="174" dy="17">ﾄ</tspan><tspan x="174" dy="17">D</tspan><tspan x="174" dy="17">ｴ</tspan><tspan x="174" dy="17">4</tspan><tspan x="174" dy="17">1</tspan><tspan x="174" dy="17">S</tspan><tspan x="174" dy="17">O</tspan><tspan x="174" dy="17">ｴ</tspan><tspan x="174" dy="17">ﾄ</tspan></text>
      <text x="174" y="-767" class="head">X</text>
      <animateTransform attributeName="transform" type="translate" values="0 0;0 1650" dur="0.072s" begin="-0.029s" repeatCount="indefinite"/>
    </g><g>
      <text x="212" y="-810" class="rain">ﾅ<tspan x="212" dy="17">H</tspan><tspan x="212" dy="17">N</tspan><tspan x="212" dy="17">T</tspan><tspan x="212" dy="17">B</tspan><tspan x="212" dy="17">7</tspan><tspan x="212" dy="17">9</tspan><tspan x="212" dy="17">D</tspan><tspan x="212" dy="17">U</tspan><tspan x="212" dy="17">W</tspan><tspan x="212" dy="17">7</tspan><tspan x="212" dy="17">ﾆ</tspan><tspan x="212" dy="17">F</tspan><tspan x="212" dy="17">ｻ</tspan><tspan x="212" dy="17">4</tspan><tspan x="212" dy="17">ｱ</tspan><tspan x="212" dy="17">H</tspan><tspan x="212" dy="17">X</tspan><tspan x="212" dy="17">3</tspan><tspan x="212" dy="17">V</tspan><tspan x="212" dy="17">Y</tspan><tspan x="212" dy="17">ﾆ</tspan><tspan x="212" dy="17">Q</tspan></text>
      <text x="212" y="-810" class="head">ﾅ</text>
      <animateTransform attributeName="transform" type="translate" values="0 0;0 1650" dur="0.098s" begin="-0.038s" repeatCount="indefinite"/>
    </g><g>
      <text x="250" y="-445" class="rain">4<tspan x="250" dy="17">ﾂ</tspan><tspan x="250" dy="17">T</tspan><tspan x="250" dy="17">B</tspan><tspan x="250" dy="17">O</tspan><tspan x="250" dy="17">ｵ</tspan><tspan x="250" dy="17">S</tspan><tspan x="250" dy="17">ﾅ</tspan><tspan x="250" dy="17">6</tspan><tspan x="250" dy="17">A</tspan><tspan x="250" dy="17">J</tspan><tspan x="250" dy="17">ｿ</tspan><tspan x="250" dy="17">I</tspan><tspan x="250" dy="17">3</tspan><tspan x="250" dy="17">N</tspan><tspan x="250" dy="17">ｶ</tspan><tspan x="250" dy="17">E</tspan><tspan x="250" dy="17">F</tspan><tspan x="250" dy="17">2</tspan><tspan x="250" dy="17">ｾ</tspan><tspan x="250" dy="17">A</tspan><tspan x="250" dy="17">ﾁ</tspan></text>
      <text x="250" y="-445" class="head">4</text>
      <animateTransform attributeName="transform" type="translate" values="0 0;0 1650" dur="0.081s" begin="-0.073s" repeatCount="indefinite"/>
    </g><g>
      <text x="288" y="-432" class="rain">ｳ<tspan x="288" dy="17">8</tspan><tspan x="288" dy="17">U</tspan><tspan x="288" dy="17">4</tspan><tspan x="288" dy="17">G</tspan><tspan x="288" dy="17">S</tspan><tspan x="288" dy="17">ｵ</tspan><tspan x="288" dy="17">C</tspan><tspan x="288" dy="17">5</tspan><tspan x="288" dy="17">J</tspan><tspan x="288" dy="17">O</tspan><tspan x="288" dy="17">ﾄ</tspan><tspan x="288" dy="17">1</tspan><tspan x="288" dy="17">ﾅ</tspan><tspan x="288" dy="17">F</tspan><tspan x="288" dy="17">ｳ</tspan><tspan x="288" dy="17">Q</tspan><tspan x="288" dy="17">W</tspan><tspan x="288" dy="17">ﾀ</tspan><tspan x="288" dy="17">7</tspan><tspan x="288" dy="17">9</tspan><tspan x="288" dy="17">8</tspan><tspan x="288" dy="17">J</tspan><tspan x="288" dy="17">I</tspan><tspan x="288" dy="17">H</tspan></text>
      <text x="288" y="-432" class="head">ｳ</text>
      <animateTransform attributeName="transform" type="translate" values="0 0;0 1650" dur="0.082s" begin="-0.042s" repeatCount="indefinite"/>
    </g><g>
      <text x="326" y="-848" class="rain">7<tspan x="326" dy="17">R</tspan><tspan x="326" dy="17">ﾄ</tspan><tspan x="326" dy="17">ｵ</tspan><tspan x="326" dy="17">M</tspan><tspan x="326" dy="17">L</tspan><tspan x="326" dy="17">V</tspan><tspan x="326" dy="17">ｵ</tspan><tspan x="326" dy="17">T</tspan><tspan x="326" dy="17">ｻ</tspan><tspan x="326" dy="17">ｽ</tspan><tspan x="326" dy="17">F</tspan><tspan x="326" dy="17">6</tspan><tspan x="326" dy="17">Z</tspan><tspan x="326" dy="17">ｴ</tspan><tspan x="326" dy="17">ﾄ</tspan><tspan x="326" dy="17">P</tspan><tspan x="326" dy="17">W</tspan><tspan x="326" dy="17">0</tspan><tspan x="326" dy="17">2</tspan><tspan x="326" dy="17">G</tspan><tspan x="326" dy="17">2</tspan><tspan x="326" dy="17">0</tspan><tspan x="326" dy="17">ﾇ</tspan><tspan x="326" dy="17">W</tspan><tspan x="326" dy="17">ｴ</tspan></text>
      <text x="326" y="-848" class="head">7</text>
      <animateTransform attributeName="transform" type="translate" values="0 0;0 1650" dur="0.088s" begin="-0.041s" repeatCount="indefinite"/>
    </g><g>
      <text x="364" y="-601" class="rain">9<tspan x="364" dy="17">6</tspan><tspan x="364" dy="17">T</tspan><tspan x="364" dy="17">U</tspan><tspan x="364" dy="17">F</tspan><tspan x="364" dy="17">ﾀ</tspan><tspan x="364" dy="17">6</tspan><tspan x="364" dy="17">5</tspan><tspan x="364" dy="17">3</tspan><tspan x="364" dy="17">ｷ</tspan><tspan x="364" dy="17">ｻ</tspan><tspan x="364" dy="17">ﾆ</tspan><tspan x="364" dy="17">C</tspan><tspan x="364" dy="17">8</tspan><tspan x="364" dy="17">5</tspan><tspan x="364" dy="17">C</tspan><tspan x="364" dy="17">Z</tspan><tspan x="364" dy="17">W</tspan><tspan x="364" dy="17">F</tspan><tspan x="364" dy="17">ﾆ</tspan><tspan x="364" dy="17">ﾄ</tspan><tspan x="364" dy="17">6</tspan><tspan x="364" dy="17">ｴ</tspan><tspan x="364" dy="17">ﾁ</tspan><tspan x="364" dy="17">7</tspan></text>
      <text x="364" y="-601" class="head">9</text>
      <animateTransform attributeName="transform" type="translate" values="0 0;0 1650" dur="0.067s" begin="-0.039s" repeatCount="indefinite"/>
    </g><g>
      <text x="402" y="-521" class="rain">ｽ<tspan x="402" dy="17">0</tspan><tspan x="402" dy="17">ﾀ</tspan><tspan x="402" dy="17">T</tspan><tspan x="402" dy="17">ｽ</tspan><tspan x="402" dy="17">8</tspan><tspan x="402" dy="17">ｽ</tspan><tspan x="402" dy="17">U</tspan><tspan x="402" dy="17">ｽ</tspan><tspan x="402" dy="17">5</tspan><tspan x="402" dy="17">3</tspan><tspan x="402" dy="17">2</tspan><tspan x="402" dy="17">T</tspan><tspan x="402" dy="17">6</tspan><tspan x="402" dy="17">D</tspan><tspan x="402" dy="17">P</tspan><tspan x="402" dy="17">Z</tspan><tspan x="402" dy="17">F</tspan><tspan x="402" dy="17">ﾀ</tspan><tspan x="402" dy="17">3</tspan></text>
      <text x="402" y="-521" class="head">ｽ</text>
      <animateTransform attributeName="transform" type="translate" values="0 0;0 1650" dur="0.077s" begin="-0.104s" repeatCount="indefinite"/>
    </g><g>
      <text x="440" y="-377" class="rain">ｵ<tspan x="440" dy="17">V</tspan><tspan x="440" dy="17">N</tspan><tspan x="440" dy="17">4</tspan><tspan x="440" dy="17">H</tspan><tspan x="440" dy="17">V</tspan><tspan x="440" dy="17">K</tspan><tspan x="440" dy="17">M</tspan><tspan x="440" dy="17">ｶ</tspan><tspan x="440" dy="17">E</tspan><tspan x="440" dy="17">Q</tspan><tspan x="440" dy="17">ﾄ</tspan><tspan x="440" dy="17">3</tspan><tspan x="440" dy="17">N</tspan><tspan x="440" dy="17">V</tspan><tspan x="440" dy="17">G</tspan><tspan x="440" dy="17">ﾆ</tspan><tspan x="440" dy="17">7</tspan><tspan x="440" dy="17">0</tspan><tspan x="440" dy="17">C</tspan><tspan x="440" dy="17">B</tspan></text>
      <text x="440" y="-377" class="head">ｵ</text>
      <animateTransform attributeName="transform" type="translate" values="0 0;0 1650" dur="0.106s" begin="-0.101s" repeatCount="indefinite"/>
    </g><g>
      <text x="478" y="-435" class="rain">ﾂ<tspan x="478" dy="17">G</tspan><tspan x="478" dy="17">6</tspan><tspan x="478" dy="17">N</tspan><tspan x="478" dy="17">A</tspan><tspan x="478" dy="17">4</tspan><tspan x="478" dy="17">O</tspan><tspan x="478" dy="17">W</tspan><tspan x="478" dy="17">ﾅ</tspan><tspan x="478" dy="17">C</tspan><tspan x="478" dy="17">J</tspan><tspan x="478" dy="17">9</tspan><tspan x="478" dy="17">ｳ</tspan><tspan x="478" dy="17">D</tspan><tspan x="478" dy="17">ﾀ</tspan><tspan x="478" dy="17">4</tspan><tspan x="478" dy="17">S</tspan><tspan x="478" dy="17">ﾄ</tspan><tspan x="478" dy="17">A</tspan><tspan x="478" dy="17">Q</tspan><tspan x="478" dy="17">B</tspan><tspan x="478" dy="17">6</tspan></text>
      <text x="478" y="-435" class="head">ﾂ</text>
      <animateTransform attributeName="transform" type="translate" values="0 0;0 1650" dur="0.093s" begin="-0.03s" repeatCount="indefinite"/>
    </g><g>
      <text x="516" y="-426" class="rain">ﾃ<tspan x="516" dy="17">Z</tspan><tspan x="516" dy="17">L</tspan><tspan x="516" dy="17">V</tspan><tspan x="516" dy="17">2</tspan><tspan x="516" dy="17">S</tspan><tspan x="516" dy="17">B</tspan><tspan x="516" dy="17">2</tspan><tspan x="516" dy="17">Q</tspan><tspan x="516" dy="17">T</tspan><tspan x="516" dy="17">ｻ</tspan><tspan x="516" dy="17">ﾂ</tspan><tspan x="516" dy="17">G</tspan><tspan x="516" dy="17">3</tspan><tspan x="516" dy="17">5</tspan><tspan x="516" dy="17">W</tspan><tspan x="516" dy="17">ｼ</tspan><tspan x="516" dy="17">F</tspan><tspan x="516" dy="17">Z</tspan><tspan x="516" dy="17">N</tspan><tspan x="516" dy="17">ｼ</tspan><tspan x="516" dy="17">4</tspan><tspan x="516" dy="17">6</tspan></text>
      <text x="516" y="-426" class="head">ﾃ</text>
      <animateTransform attributeName="transform" type="translate" values="0 0;0 1650" dur="0.109s" begin="-0.097s" repeatCount="indefinite"/>
    </g><g>
      <text x="554" y="-582" class="rain">7<tspan x="554" dy="17">ｱ</tspan><tspan x="554" dy="17">ｷ</tspan><tspan x="554" dy="17">3</tspan><tspan x="554" dy="17">G</tspan><tspan x="554" dy="17">ｳ</tspan><tspan x="554" dy="17">K</tspan><tspan x="554" dy="17">Y</tspan><tspan x="554" dy="17">S</tspan><tspan x="554" dy="17">0</tspan><tspan x="554" dy="17">W</tspan><tspan x="554" dy="17">ﾃ</tspan><tspan x="554" dy="17">ｽ</tspan><tspan x="554" dy="17">T</tspan><tspan x="554" dy="17">0</tspan><tspan x="554" dy="17">ﾆ</tspan><tspan x="554" dy="17">G</tspan><tspan x="554" dy="17">2</tspan><tspan x="554" dy="17">H</tspan><tspan x="554" dy="17">ｷ</tspan><tspan x="554" dy="17">Q</tspan><tspan x="554" dy="17">ﾂ</tspan><tspan x="554" dy="17">E</tspan><tspan x="554" dy="17">X</tspan></text>
      <text x="554" y="-582" class="head">7</text>
      <animateTransform attributeName="transform" type="translate" values="0 0;0 1650" dur="0.064s" begin="-0.009s" repeatCount="indefinite"/>
    </g><g>
      <text x="592" y="-469" class="rain">E<tspan x="592" dy="17">N</tspan><tspan x="592" dy="17">G</tspan><tspan x="592" dy="17">U</tspan><tspan x="592" dy="17">ｴ</tspan><tspan x="592" dy="17">T</tspan><tspan x="592" dy="17">T</tspan><tspan x="592" dy="17">7</tspan><tspan x="592" dy="17">3</tspan><tspan x="592" dy="17">M</tspan><tspan x="592" dy="17">ﾄ</tspan><tspan x="592" dy="17">4</tspan><tspan x="592" dy="17">Y</tspan><tspan x="592" dy="17">4</tspan><tspan x="592" dy="17">W</tspan><tspan x="592" dy="17">ｳ</tspan><tspan x="592" dy="17">ﾁ</tspan><tspan x="592" dy="17">2</tspan><tspan x="592" dy="17">M</tspan><tspan x="592" dy="17">D</tspan><tspan x="592" dy="17">ﾄ</tspan><tspan x="592" dy="17">R</tspan></text>
      <text x="592" y="-469" class="head">E</text>
      <animateTransform attributeName="transform" type="translate" values="0 0;0 1650" dur="0.095s" begin="-0.045s" repeatCount="indefinite"/>
    </g><g>
      <text x="630" y="-764" class="rain">ｼ<tspan x="630" dy="17">T</tspan><tspan x="630" dy="17">ｻ</tspan><tspan x="630" dy="17">N</tspan><tspan x="630" dy="17">E</tspan><tspan x="630" dy="17">ｴ</tspan><tspan x="630" dy="17">ﾀ</tspan><tspan x="630" dy="17">Y</tspan><tspan x="630" dy="17">G</tspan><tspan x="630" dy="17">X</tspan><tspan x="630" dy="17">Q</tspan><tspan x="630" dy="17">E</tspan><tspan x="630" dy="17">5</tspan><tspan x="630" dy="17">V</tspan><tspan x="630" dy="17">U</tspan><tspan x="630" dy="17">9</tspan><tspan x="630" dy="17">ｾ</tspan><tspan x="630" dy="17">ｳ</tspan><tspan x="630" dy="17">O</tspan><tspan x="630" dy="17">7</tspan><tspan x="630" dy="17">4</tspan><tspan x="630" dy="17">N</tspan><tspan x="630" dy="17">Y</tspan><tspan x="630" dy="17">ｹ</tspan><tspan x="630" dy="17">0</tspan></text>
      <text x="630" y="-764" class="head">ｼ</text>
      <animateTransform attributeName="transform" type="translate" values="0 0;0 1650" dur="0.097s" begin="-0.106s" repeatCount="indefinite"/>
    </g><g>
      <text x="668" y="-497" class="rain">ｾ<tspan x="668" dy="17">ﾆ</tspan><tspan x="668" dy="17">0</tspan><tspan x="668" dy="17">4</tspan><tspan x="668" dy="17">ｴ</tspan><tspan x="668" dy="17">C</tspan><tspan x="668" dy="17">O</tspan><tspan x="668" dy="17">E</tspan><tspan x="668" dy="17">J</tspan><tspan x="668" dy="17">4</tspan><tspan x="668" dy="17">8</tspan><tspan x="668" dy="17">T</tspan><tspan x="668" dy="17">S</tspan><tspan x="668" dy="17">M</tspan><tspan x="668" dy="17">H</tspan><tspan x="668" dy="17">O</tspan><tspan x="668" dy="17">Z</tspan><tspan x="668" dy="17">1</tspan><tspan x="668" dy="17">ﾂ</tspan><tspan x="668" dy="17">P</tspan></text>
      <text x="668" y="-497" class="head">ｾ</text>
      <animateTransform attributeName="transform" type="translate" values="0 0;0 1650" dur="0.088s" begin="-0.03s" repeatCount="indefinite"/>
    </g><g>
      <text x="706" y="-645" class="rain">7<tspan x="706" dy="17">G</tspan><tspan x="706" dy="17">J</tspan><tspan x="706" dy="17">S</tspan><tspan x="706" dy="17">9</tspan><tspan x="706" dy="17">ﾂ</tspan><tspan x="706" dy="17">ﾅ</tspan><tspan x="706" dy="17">V</tspan><tspan x="706" dy="17">0</tspan><tspan x="706" dy="17">Q</tspan><tspan x="706" dy="17">B</tspan><tspan x="706" dy="17">6</tspan><tspan x="706" dy="17">5</tspan><tspan x="706" dy="17">2</tspan><tspan x="706" dy="17">Y</tspan><tspan x="706" dy="17">ｾ</tspan><tspan x="706" dy="17">T</tspan><tspan x="706" dy="17">ﾅ</tspan><tspan x="706" dy="17">4</tspan><tspan x="706" dy="17">C</tspan><tspan x="706" dy="17">ｵ</tspan></text>
      <text x="706" y="-645" class="head">7</text>
      <animateTransform attributeName="transform" type="translate" values="0 0;0 1650" dur="0.11s" begin="-0.089s" repeatCount="indefinite"/>
    </g><g>
      <text x="744" y="-350" class="rain">P<tspan x="744" dy="17">1</tspan><tspan x="744" dy="17">4</tspan><tspan x="744" dy="17">ﾃ</tspan><tspan x="744" dy="17">7</tspan><tspan x="744" dy="17">D</tspan><tspan x="744" dy="17">U</tspan><tspan x="744" dy="17">P</tspan><tspan x="744" dy="17">M</tspan><tspan x="744" dy="17">N</tspan><tspan x="744" dy="17">3</tspan><tspan x="744" dy="17">A</tspan><tspan x="744" dy="17">C</tspan><tspan x="744" dy="17">ｷ</tspan><tspan x="744" dy="17">Z</tspan><tspan x="744" dy="17">ｱ</tspan><tspan x="744" dy="17">9</tspan><tspan x="744" dy="17">E</tspan><tspan x="744" dy="17">B</tspan><tspan x="744" dy="17">ﾆ</tspan><tspan x="744" dy="17">Q</tspan><tspan x="744" dy="17">L</tspan><tspan x="744" dy="17">8</tspan><tspan x="744" dy="17">1</tspan><tspan x="744" dy="17">O</tspan></text>
      <text x="744" y="-350" class="head">P</text>
      <animateTransform attributeName="transform" type="translate" values="0 0;0 1650" dur="0.096s" begin="-0.052s" repeatCount="indefinite"/>
    </g><g>
      <text x="782" y="-364" class="rain">O<tspan x="782" dy="17">ﾀ</tspan><tspan x="782" dy="17">ﾆ</tspan><tspan x="782" dy="17">Z</tspan><tspan x="782" dy="17">I</tspan><tspan x="782" dy="17">P</tspan><tspan x="782" dy="17">F</tspan><tspan x="782" dy="17">2</tspan><tspan x="782" dy="17">D</tspan><tspan x="782" dy="17">S</tspan><tspan x="782" dy="17">W</tspan><tspan x="782" dy="17">T</tspan><tspan x="782" dy="17">ﾄ</tspan><tspan x="782" dy="17">E</tspan><tspan x="782" dy="17">ｻ</tspan><tspan x="782" dy="17">5</tspan><tspan x="782" dy="17">ｾ</tspan><tspan x="782" dy="17">ｳ</tspan><tspan x="782" dy="17">7</tspan><tspan x="782" dy="17">D</tspan><tspan x="782" dy="17">ﾄ</tspan></text>
      <text x="782" y="-364" class="head">O</text>
      <animateTransform attributeName="transform" type="translate" values="0 0;0 1650" dur="0.097s" begin="-0.074s" repeatCount="indefinite"/>
    </g><g>
      <text x="820" y="-386" class="rain">V<tspan x="820" dy="17">3</tspan><tspan x="820" dy="17">M</tspan><tspan x="820" dy="17">U</tspan><tspan x="820" dy="17">4</tspan><tspan x="820" dy="17">W</tspan><tspan x="820" dy="17">ﾇ</tspan><tspan x="820" dy="17">1</tspan><tspan x="820" dy="17">5</tspan><tspan x="820" dy="17">R</tspan><tspan x="820" dy="17">Z</tspan><tspan x="820" dy="17">ｾ</tspan><tspan x="820" dy="17">V</tspan><tspan x="820" dy="17">4</tspan><tspan x="820" dy="17">0</tspan><tspan x="820" dy="17">9</tspan><tspan x="820" dy="17">ﾅ</tspan><tspan x="820" dy="17">3</tspan><tspan x="820" dy="17">6</tspan><tspan x="820" dy="17">P</tspan><tspan x="820" dy="17">ｱ</tspan><tspan x="820" dy="17">E</tspan><tspan x="820" dy="17">Q</tspan><tspan x="820" dy="17">V</tspan></text>
      <text x="820" y="-386" class="head">V</text>
      <animateTransform attributeName="transform" type="translate" values="0 0;0 1650" dur="0.072s" begin="-0.052s" repeatCount="indefinite"/>
    </g><g>
      <text x="858" y="-664" class="rain">2<tspan x="858" dy="17">C</tspan><tspan x="858" dy="17">K</tspan><tspan x="858" dy="17">O</tspan><tspan x="858" dy="17">A</tspan><tspan x="858" dy="17">4</tspan><tspan x="858" dy="17">T</tspan><tspan x="858" dy="17">ｿ</tspan><tspan x="858" dy="17">C</tspan><tspan x="858" dy="17">Q</tspan><tspan x="858" dy="17">8</tspan><tspan x="858" dy="17">ｹ</tspan><tspan x="858" dy="17">B</tspan><tspan x="858" dy="17">0</tspan><tspan x="858" dy="17">Z</tspan><tspan x="858" dy="17">Q</tspan><tspan x="858" dy="17">T</tspan><tspan x="858" dy="17">A</tspan><tspan x="858" dy="17">ﾆ</tspan><tspan x="858" dy="17">F</tspan><tspan x="858" dy="17">9</tspan><tspan x="858" dy="17">S</tspan><tspan x="858" dy="17">8</tspan></text>
      <text x="858" y="-664" class="head">2</text>
      <animateTransform attributeName="transform" type="translate" values="0 0;0 1650" dur="0.072s" begin="-0.058s" repeatCount="indefinite"/>
    </g><g>
      <text x="896" y="-481" class="rain">8<tspan x="896" dy="17">ｽ</tspan><tspan x="896" dy="17">V</tspan><tspan x="896" dy="17">Q</tspan><tspan x="896" dy="17">R</tspan><tspan x="896" dy="17">C</tspan><tspan x="896" dy="17">G</tspan><tspan x="896" dy="17">Q</tspan><tspan x="896" dy="17">Y</tspan><tspan x="896" dy="17">C</tspan><tspan x="896" dy="17">1</tspan><tspan x="896" dy="17">ﾄ</tspan><tspan x="896" dy="17">ﾂ</tspan><tspan x="896" dy="17">ﾅ</tspan><tspan x="896" dy="17">L</tspan><tspan x="896" dy="17">D</tspan><tspan x="896" dy="17">ｴ</tspan><tspan x="896" dy="17">4</tspan><tspan x="896" dy="17">N</tspan><tspan x="896" dy="17">J</tspan><tspan x="896" dy="17">E</tspan><tspan x="896" dy="17">7</tspan><tspan x="896" dy="17">D</tspan><tspan x="896" dy="17">1</tspan><tspan x="896" dy="17">S</tspan></text>
      <text x="896" y="-481" class="head">8</text>
      <animateTransform attributeName="transform" type="translate" values="0 0;0 1650" dur="0.093s" begin="-0.019s" repeatCount="indefinite"/>
    </g><g>
      <text x="934" y="-878" class="rain">4<tspan x="934" dy="17">2</tspan><tspan x="934" dy="17">D</tspan><tspan x="934" dy="17">ｻ</tspan><tspan x="934" dy="17">3</tspan><tspan x="934" dy="17">V</tspan><tspan x="934" dy="17">Z</tspan><tspan x="934" dy="17">8</tspan><tspan x="934" dy="17">ｿ</tspan><tspan x="934" dy="17">U</tspan><tspan x="934" dy="17">D</tspan><tspan x="934" dy="17">ｷ</tspan><tspan x="934" dy="17">V</tspan><tspan x="934" dy="17">S</tspan><tspan x="934" dy="17">Z</tspan><tspan x="934" dy="17">R</tspan><tspan x="934" dy="17">Q</tspan><tspan x="934" dy="17">X</tspan><tspan x="934" dy="17">D</tspan><tspan x="934" dy="17">A</tspan><tspan x="934" dy="17">Z</tspan><tspan x="934" dy="17">ﾆ</tspan><tspan x="934" dy="17">O</tspan></text>
      <text x="934" y="-878" class="head">4</text>
      <animateTransform attributeName="transform" type="translate" values="0 0;0 1650" dur="0.068s" begin="-0.05s" repeatCount="indefinite"/>
    </g><g>
      <text x="972" y="-784" class="rain">9<tspan x="972" dy="17">2</tspan><tspan x="972" dy="17">9</tspan><tspan x="972" dy="17">9</tspan><tspan x="972" dy="17">G</tspan><tspan x="972" dy="17">7</tspan><tspan x="972" dy="17">ﾅ</tspan><tspan x="972" dy="17">4</tspan><tspan x="972" dy="17">9</tspan><tspan x="972" dy="17">6</tspan><tspan x="972" dy="17">A</tspan><tspan x="972" dy="17">J</tspan><tspan x="972" dy="17">O</tspan><tspan x="972" dy="17">A</tspan><tspan x="972" dy="17">ｼ</tspan><tspan x="972" dy="17">J</tspan><tspan x="972" dy="17">ﾃ</tspan><tspan x="972" dy="17">0</tspan><tspan x="972" dy="17">ｴ</tspan><tspan x="972" dy="17">ｱ</tspan><tspan x="972" dy="17">N</tspan><tspan x="972" dy="17">E</tspan><tspan x="972" dy="17">5</tspan><tspan x="972" dy="17">E</tspan><tspan x="972" dy="17">Q</tspan><tspan x="972" dy="17">ｽ</tspan></text>
      <text x="972" y="-784" class="head">9</text>
      <animateTransform attributeName="transform" type="translate" values="0 0;0 1650" dur="0.078s" begin="-0.008s" repeatCount="indefinite"/>
    </g><g>
      <text x="1010" y="-627" class="rain">M<tspan x="1010" dy="17">3</tspan><tspan x="1010" dy="17">Y</tspan><tspan x="1010" dy="17">9</tspan><tspan x="1010" dy="17">N</tspan><tspan x="1010" dy="17">3</tspan><tspan x="1010" dy="17">F</tspan><tspan x="1010" dy="17">8</tspan><tspan x="1010" dy="17">X</tspan><tspan x="1010" dy="17">Z</tspan><tspan x="1010" dy="17">4</tspan><tspan x="1010" dy="17">0</tspan><tspan x="1010" dy="17">V</tspan><tspan x="1010" dy="17">6</tspan><tspan x="1010" dy="17">2</tspan><tspan x="1010" dy="17">R</tspan><tspan x="1010" dy="17">ｱ</tspan><tspan x="1010" dy="17">D</tspan><tspan x="1010" dy="17">3</tspan><tspan x="1010" dy="17">7</tspan></text>
      <text x="1010" y="-627" class="head">M</text>
      <animateTransform attributeName="transform" type="translate" values="0 0;0 1650" dur="0.08s" begin="-0.053s" repeatCount="indefinite"/>
    </g><g>
      <text x="1048" y="-848" class="rain">ﾂ<tspan x="1048" dy="17">1</tspan><tspan x="1048" dy="17">ｹ</tspan><tspan x="1048" dy="17">T</tspan><tspan x="1048" dy="17">A</tspan><tspan x="1048" dy="17">J</tspan><tspan x="1048" dy="17">M</tspan><tspan x="1048" dy="17">Y</tspan><tspan x="1048" dy="17">S</tspan><tspan x="1048" dy="17">1</tspan><tspan x="1048" dy="17">T</tspan><tspan x="1048" dy="17">D</tspan><tspan x="1048" dy="17">6</tspan><tspan x="1048" dy="17">Q</tspan><tspan x="1048" dy="17">ｻ</tspan><tspan x="1048" dy="17">G</tspan><tspan x="1048" dy="17">ﾅ</tspan><tspan x="1048" dy="17">W</tspan><tspan x="1048" dy="17">F</tspan><tspan x="1048" dy="17">Q</tspan><tspan x="1048" dy="17">A</tspan><tspan x="1048" dy="17">X</tspan><tspan x="1048" dy="17">B</tspan><tspan x="1048" dy="17">Z</tspan></text>
      <text x="1048" y="-848" class="head">ﾂ</text>
      <animateTransform attributeName="transform" type="translate" values="0 0;0 1650" dur="0.082s" begin="-0.018s" repeatCount="indefinite"/>
    </g><g>
      <text x="1086" y="-688" class="rain">E<tspan x="1086" dy="17">K</tspan><tspan x="1086" dy="17">O</tspan><tspan x="1086" dy="17">ﾅ</tspan><tspan x="1086" dy="17">M</tspan><tspan x="1086" dy="17">3</tspan><tspan x="1086" dy="17">ｹ</tspan><tspan x="1086" dy="17">ﾃ</tspan><tspan x="1086" dy="17">F</tspan><tspan x="1086" dy="17">7</tspan><tspan x="1086" dy="17">C</tspan><tspan x="1086" dy="17">2</tspan><tspan x="1086" dy="17">ｿ</tspan><tspan x="1086" dy="17">P</tspan><tspan x="1086" dy="17">3</tspan><tspan x="1086" dy="17">T</tspan><tspan x="1086" dy="17">K</tspan><tspan x="1086" dy="17">4</tspan><tspan x="1086" dy="17">8</tspan><tspan x="1086" dy="17">ﾂ</tspan><tspan x="1086" dy="17">M</tspan><tspan x="1086" dy="17">U</tspan><tspan x="1086" dy="17">Y</tspan><tspan x="1086" dy="17">Q</tspan><tspan x="1086" dy="17">C</tspan></text>
      <text x="1086" y="-688" class="head">E</text>
      <animateTransform attributeName="transform" type="translate" values="0 0;0 1650" dur="0.074s" begin="-0.056s" repeatCount="indefinite"/>
    </g><g>
      <text x="1124" y="-561" class="rain">5<tspan x="1124" dy="17">ｵ</tspan><tspan x="1124" dy="17">2</tspan><tspan x="1124" dy="17">M</tspan><tspan x="1124" dy="17">ﾂ</tspan><tspan x="1124" dy="17">X</tspan><tspan x="1124" dy="17">ﾅ</tspan><tspan x="1124" dy="17">J</tspan><tspan x="1124" dy="17">L</tspan><tspan x="1124" dy="17">F</tspan><tspan x="1124" dy="17">2</tspan><tspan x="1124" dy="17">A</tspan><tspan x="1124" dy="17">C</tspan><tspan x="1124" dy="17">M</tspan><tspan x="1124" dy="17">T</tspan><tspan x="1124" dy="17">ﾅ</tspan><tspan x="1124" dy="17">ｴ</tspan><tspan x="1124" dy="17">0</tspan><tspan x="1124" dy="17">V</tspan><tspan x="1124" dy="17">3</tspan><tspan x="1124" dy="17">9</tspan><tspan x="1124" dy="17">Q</tspan></text>
      <text x="1124" y="-561" class="head">5</text>
      <animateTransform attributeName="transform" type="translate" values="0 0;0 1650" dur="0.085s" begin="-0.071s" repeatCount="indefinite"/>
    </g><g>
      <text x="1162" y="-853" class="rain">3<tspan x="1162" dy="17">ｹ</tspan><tspan x="1162" dy="17">E</tspan><tspan x="1162" dy="17">ﾀ</tspan><tspan x="1162" dy="17">A</tspan><tspan x="1162" dy="17">C</tspan><tspan x="1162" dy="17">9</tspan><tspan x="1162" dy="17">I</tspan><tspan x="1162" dy="17">8</tspan><tspan x="1162" dy="17">ｾ</tspan><tspan x="1162" dy="17">6</tspan><tspan x="1162" dy="17">P</tspan><tspan x="1162" dy="17">ｳ</tspan><tspan x="1162" dy="17">C</tspan><tspan x="1162" dy="17">7</tspan><tspan x="1162" dy="17">X</tspan><tspan x="1162" dy="17">G</tspan><tspan x="1162" dy="17">U</tspan><tspan x="1162" dy="17">ｼ</tspan><tspan x="1162" dy="17">6</tspan><tspan x="1162" dy="17">H</tspan><tspan x="1162" dy="17">ﾆ</tspan><tspan x="1162" dy="17">O</tspan></text>
      <text x="1162" y="-853" class="head">3</text>
      <animateTransform attributeName="transform" type="translate" values="0 0;0 1650" dur="0.084s" begin="-0.041s" repeatCount="indefinite"/>
    </g></g>
<rect x="32" y="92" width="900" height="350" rx="2" fill="#000" fill-opacity=".63"/><rect x="32" y="92" width="900" height="350" rx="2" fill="none" stroke="#00ff41" stroke-opacity=".15"/>
<g font-family="ui-monospace,SFMono-Regular,Menlo,Consolas,monospace"><text x="52" y="61" font-size="12" letter-spacing="3" fill="#00ff41">NODE://GER1E</text><text x="1148" y="61" text-anchor="end" font-size="12" letter-spacing="3" fill="#00ff41" fill-opacity=".56">SIGNAL LOCK / 01</text></g>
<text x="70" y="328" class="mark" fill="#effff1" stroke="#00ff41" stroke-width="3" filter="url(#greenGlow)">ム乇 尺1乇</text>
<g clip-path="url(#g0)"><text x="70" y="328" class="mark glitch">ム乇 尺1乇<animateTransform attributeName="transform" type="translate" values="0 0;0 0;24 0;-12 0;0 0;0 0" keyTimes="0;.42;.445;.47;.495;1" dur=".74s" repeatCount="indefinite"/></text></g><g clip-path="url(#g1)"><text x="70" y="328" class="mark glitch">ム乇 尺1乇<animateTransform attributeName="transform" type="translate" values="0 0;0 0;-30 0;15 0;0 0;0 0" keyTimes="0;.42;.445;.47;.495;1" dur=".74s" repeatCount="indefinite"/></text></g><g clip-path="url(#g2)"><text x="70" y="328" class="mark glitch">ム乇 尺1乇<animateTransform attributeName="transform" type="translate" values="0 0;0 0;38 0;-19 0;0 0;0 0" keyTimes="0;.42;.445;.47;.495;1" dur=".74s" repeatCount="indefinite"/></text></g><g clip-path="url(#g3)"><text x="70" y="328" class="mark glitch">ム乇 尺1乇<animateTransform attributeName="transform" type="translate" values="0 0;0 0;-26 0;13 0;0 0;0 0" keyTimes="0;.42;.445;.47;.495;1" dur=".74s" repeatCount="indefinite"/></text></g><g clip-path="url(#g4)"><text x="70" y="328" class="mark glitch">ム乇 尺1乇<animateTransform attributeName="transform" type="translate" values="0 0;0 0;32 0;-16 0;0 0;0 0" keyTimes="0;.42;.445;.47;.495;1" dur=".74s" repeatCount="indefinite"/></text></g><g clip-path="url(#g5)"><text x="70" y="328" class="mark glitch">ム乇 尺1乇<animateTransform attributeName="transform" type="translate" values="0 0;0 0;-20 0;10 0;0 0;0 0" keyTimes="0;.42;.445;.47;.495;1" dur=".74s" repeatCount="indefinite"/></text></g>
<g clip-path="url(#frame)" opacity="0">
  <rect x="10" y="154" width="1180" height="4" fill="#eaffea"/><rect x="10" y="229" width="1180" height="8" fill="#00ff41"/><rect x="10" y="302" width="1180" height="3" fill="#dfffe5"/><rect x="10" y="368" width="1180" height="6" fill="#00ff41"/>
  <animate attributeName="opacity" values="0;0;.60;.88;.18;0;0" keyTimes="0;.42;.445;.47;.495;.525;1" dur=".74s" repeatCount="indefinite"/>
  <animateTransform attributeName="transform" type="translate" values="0 0;0 0;22 0;-31 0;14 0;0 0;0 0" keyTimes="0;.42;.445;.47;.495;.525;1" dur=".74s" repeatCount="indefinite"/>
</g>
<rect x="10" y="0" width="1180" height="2" fill="#dfffe5" opacity=".24"><animate attributeName="y" values="30;570" dur=".19s" repeatCount="indefinite"/></rect>
<text x="70" y="397" font-family="ui-monospace,SFMono-Regular,Menlo,Consolas,monospace" font-size="20" font-weight="700" letter-spacing="4" fill="#00ff41">THREAT HUNTER // CTI // DETECTION ENGINEERING</text>
<g font-family="ui-monospace,SFMono-Regular,Menlo,Consolas,monospace"><text x="70" y="482" font-size="15" letter-spacing="1.6" fill="#b0c3b2">“ANYBODY WHO SHEDS LIGHT ON THE DARKNESS IS THE ENEMY.”</text><text x="70" y="512" font-size="12" letter-spacing="3" fill="#00ff41">— JOHN KIRIAKOU</text></g>
<g transform="translate(960 154)" stroke="#00ff41" fill="none"><path d="M0 40h54l14-20 18 56 19-43 20 18h75" stroke-width="2" opacity=".76"/><path d="M0 106h34l12-9 18 20 22-52 23 68 17-27h74" stroke-width="1.2" opacity=".38"/><path d="M0 171h200" opacity=".17"/><path d="M0 205h155l14-11h31" opacity=".28"/><rect x="0" y="235" width="200" height="3" fill="#00ff41" opacity=".13"/><rect x="0" y="235" width="70" height="3" fill="#00ff41" opacity=".72"><animate attributeName="x" values="0;130;0" dur=".38s" repeatCount="indefinite"/></rect></g>
<rect width="1200" height="600" fill="url(#scan)"/><rect x="10" y="10" width="1180" height="580" rx="3" fill="none" stroke="#00ff41" stroke-opacity=".18"/>
</svg>