<svg xmlns="http://www.w3.org/2000/svg" viewBox="0 0 1200 92" role="img" aria-labelledby="t d"><title id="t">GER1E operating signal</title><desc id="d">Compact status strip for threat hunting, CTI, detection engineering and analyst tooling.</desc><defs><linearGradient id="bg" x1="0" y1="0" x2="1" y2="0"><stop offset="0" stop-color="#020604"/><stop offset=".5" stop-color="#061009"/><stop offset="1" stop-color="#020604"/></linearGradient><filter id="g" x="-30%" y="-100%" width="160%" height="300%"><feGaussianBlur stdDeviation="2" result="b"/><feMerge><feMergeNode in="b"/><feMergeNode in="SourceGraphic"/></feMerge></filter><pattern id="s" width="4" height="4" patternUnits="userSpaceOnUse"><path d="M0 3.5H4" stroke="#00ff41" stroke-opacity=".028" stroke-width=".5"/></pattern><style>.m{font-family:ui-monospace,SFMono-Regular,Menlo,Consolas,monospace}</style></defs><rect width="1200" height="92" rx="8" fill="url(#bg)"/><rect x="1" y="1" width="1198" height="90" rx="8" fill="none" stroke="#00ff41" stroke-opacity=".18"/><rect width="1200" height="92" rx="8" fill="url(#s)"/><g class="m" font-size="11" letter-spacing="1.8" fill="#78907d"><text x="26" y="24">PUBLIC SIGNAL / SANITIZED</text><text x="1174" y="24" text-anchor="end">NODE://GER1E</text></g><g class="m" font-weight="800" font-size="14" letter-spacing="2.1"><text x="26" y="61" fill="#eaffed">HUNT</text><text x="138" y="61" fill="#00ff41">BEHAVIOR</text><text x="350" y="61" fill="#eaffed">INTEL</text><text x="468" y="61" fill="#00ff41">PROVENANCE</text><text x="704" y="61" fill="#eaffed">DETECT</text><text x="846" y="61" fill="#00ff41">TELEMETRY</text><text x="1054" y="61" fill="#eaffed">BUILD</text></g><g stroke="#00ff41" stroke-opacity=".26"><path d="M112 52h14"/><path d="M324 52h14"/><path d="M678 52h14"/><path d="M1028 52h14"/></g><rect x="24" y="72" width="1152" height="2" fill="#00ff41" opacity=".22"/><rect x="24" y="72" width="190" height="2" fill="#00ff41" filter="url(#g)"><animate attributeName="x" values="24;986;24" dur="9s" repeatCount="indefinite"/></rect></svg>